<?xml version="1.0" encoding="UTF-8"?>
<svg width="16px" height="16px" viewBox="0 0 16 16" version="1.1" xmlns="http://www.w3.org/2000/svg" xmlns:xlink="http://www.w3.org/1999/xlink">
    <title>calendar-days</title>
    <g id="页面-1" stroke="none" stroke-width="1" fill="none" fill-rule="evenodd">
        <g id="calendar-days" transform="translate(1.5, 1.5)" fill="#736F78">
            <path d="M10,0 C10.0328267,0 10.06534,0.00320233333 10.09754,0.009607 C10.12974,0.0160123333 10.1610067,0.0254966667 10.19134,0.03806 C10.2216733,0.050624 10.2504867,0.0660256667 10.27778,0.084265 C10.30508,0.102505 10.3303367,0.123232333 10.35355,0.146447 C10.3767633,0.169661667 10.39749,0.194917667 10.41573,0.222215 C10.43397,0.249512333 10.4493733,0.278326667 10.46194,0.308658 C10.4745,0.338989333 10.4839833,0.370254967 10.49039,0.4024549 C10.4967967,0.4346545 10.5,0.467169533 10.5,0.5 L10.5,1.5 L11,1.5 C11.5522667,1.5 12.0236667,1.69526333 12.4142,2.08579 C12.8047333,2.47631 13,2.94771333 13,3.5 L13,11 C13,11.5522667 12.8047333,12.0236667 12.4142,12.4142 C12.0236667,12.8047333 11.5522667,13 11,13 L2,13 C1.44771467,13 0.976310133,12.8047333 0.5857864,12.4142 C0.195262133,12.0236667 0,11.5522667 0,11 L0,3.5 C0,2.94771333 0.1952621,2.47631 0.5857863,2.08579 C0.976310767,1.69526333 1.44771533,1.5 2,1.5 L2.5,1.5 L2.5,0.5 C2.5,0.467169533 2.50320333,0.4346545 2.50961,0.4024549 C2.51601,0.370254967 2.52549333,0.338989333 2.53806,0.308658 C2.55062667,0.278326667 2.56602667,0.249512333 2.58426,0.222215 C2.6025,0.194917667 2.62323,0.169661667 2.64645,0.146447 C2.66966333,0.123232333 2.69491667,0.102505 2.72221,0.084265 C2.74951,0.0660256667 2.77832667,0.050624 2.80866,0.03806 C2.83899333,0.0254966667 2.87025667,0.0160123333 2.90245,0.009607 C2.93465,0.00320233333 2.96716667,0 3,0 C3.03283333,0 3.06534667,0.00320233333 3.09754,0.009607 C3.12974,0.0160123333 3.16100667,0.0254966667 3.19134,0.03806 C3.22167333,0.050624 3.25048667,0.0660256667 3.27778,0.084265 C3.30508,0.102505 3.33033667,0.123232333 3.35355,0.146447 C3.37676333,0.169661667 3.39749,0.194917667 3.41573,0.222215 C3.43397,0.249512333 3.44937333,0.278326667 3.46194,0.308658 C3.4745,0.338989333 3.48398333,0.370254967 3.49039,0.4024549 C3.49679667,0.4346545 3.5,0.467169533 3.5,0.5 L3.5,1.5 L9.5,1.5 L9.5,0.5 C9.5,0.467169533 9.50320333,0.4346545 9.50961,0.4024549 C9.51601,0.370254967 9.52549333,0.338989333 9.53806,0.308658 C9.55062,0.278326667 9.56602,0.249512333 9.58426,0.222215 C9.6025,0.194917667 9.62323,0.169661667 9.64645,0.146447 C9.66966333,0.123232333 9.69491667,0.102505 9.72221,0.084265 C9.74951,0.0660256667 9.77832667,0.050624 9.80866,0.03806 C9.83898667,0.0254966667 9.87025,0.0160123333 9.90245,0.009607 C9.93465,0.00320233333 9.96716667,0 10,0 Z M11,5 L2,5 C1.72386,5 1.48815767,5.09763 1.292893,5.29289 C1.097733,5.48805 1,5.72361 1,5.99957 L1,11 C1,11.2761333 1.097631,11.5118333 1.292893,11.7071 C1.48815767,11.9023667 1.72386,12 2,12 L11,12 C11.2761333,12 11.5118333,11.9023667 11.7071,11.7071 C11.9023667,11.5118333 12,11.2761333 12,11 L12,6 C12,5.72386 11.9023667,5.48815667 11.7071,5.29289 C11.5118333,5.09763 11.2761333,5 11,5 Z M3.50533,9.5 C3.53816333,9.5 3.57068,9.50320333 3.60288,9.50961 C3.63508,9.51601 3.66634333,9.52549333 3.69667,9.53806 C3.72700333,9.55062 3.75582,9.56602 3.78312,9.58426 C3.81041333,9.6025 3.83567,9.62323 3.85889,9.64645 C3.88210333,9.66966333 3.90283,9.69491667 3.92107,9.72221 C3.93931,9.74951 3.95471,9.77832667 3.96727,9.80866 C3.97983667,9.83898667 3.98932333,9.87025 3.99573,9.90245 C4.00213,9.93465 4.00533,9.96716667 4.00533,10 C4.00533,10.0381633 4.00213,10.07068 3.99573,10.10288 C3.98932333,10.13508 3.97983667,10.1663433 3.96727,10.19667 C3.95471,10.2270033 3.93931,10.25582 3.92107,10.28312 C3.90283,10.3104133 3.88210333,10.33567 3.85889,10.35889 C3.83567,10.3821033 3.81041333,10.40283 3.78312,10.42107 C3.75582,10.43931 3.72700333,10.45471 3.69667,10.46727 C3.66634333,10.4798367 3.63508,10.48932 3.60288,10.49572 C3.57068,10.5021067 3.53816333,10.5053 3.50533,10.5053 C3.46716667,10.5053 3.43465,10.5021067 3.40245,10.49572 C3.37025,10.48932 3.33898667,10.4798367 3.30866,10.46727 C3.27832667,10.45471 3.24951,10.43931 3.22221,10.42107 C3.19491667,10.40283 3.16966333,10.3821033 3.14645,10.35889 C3.12323,10.33567 3.1025,10.3104133 3.08426,10.28312 C3.06602667,10.25582 3.05062667,10.2270033 3.03806,10.19667 C3.02549333,10.1663433 3.01601,10.13508 3.00961,10.10288 C3.00320333,10.07068 3,10.0381633 3,10.00533 C3,9.96716667 3.00320333,9.93465 3.00961,9.90245 C3.01601,9.87025 3.02549333,9.83898667 3.03806,9.80866 C3.05062667,9.77832667 3.06602667,9.74951 3.08426,9.72221 C3.1025,9.69491667 3.12323,9.66966333 3.14645,9.64645 C3.16966333,9.62323 3.19491667,9.6025 3.22221,9.58426 C3.24951,9.56602 3.27832667,9.55062 3.30866,9.53806 C3.33898667,9.52549333 3.37025,9.51601 3.40245,9.50961 C3.43465,9.50320333 3.46716667,9.5 3.5,9.5 Z M5.00533,9.5 C5.03816333,9.5 5.07068,9.50320333 5.10288,9.50961 C5.13508,9.51601 5.16634333,9.52549333 5.19667,9.53806 C5.22700333,9.55062 5.25582,9.56602 5.28312,9.58426 C5.31042,9.6025 5.33567667,9.62323 5.35889,9.64645 C5.38210333,9.66966333 5.40283,9.69491667 5.42107,9.72221 C5.43931,9.74951 5.45471,9.77832667 5.46727,9.80866 C5.47983667,9.83898667 5.48932333,9.87025 5.49573,9.90245 C5.50213,9.93465 5.50533,9.96716667 5.50533,10 C5.50533,10.0381633 5.50213,10.07068 5.49573,10.10288 C5.48932333,10.13508 5.47983667,10.1663433 5.46727,10.19667 C5.45471,10.2270033 5.43931,10.25582 5.42107,10.28312 C5.40283,10.3104133 5.38210333,10.33567 5.35889,10.35889 C5.33567667,10.3821033 5.31042,10.40283 5.28312,10.42107 C5.25582,10.43931 5.22700667,10.45471 5.19668,10.46727 C5.16634667,10.4798367 5.13508,10.48932 5.10288,10.49572 C5.07068,10.5021067 5.03816333,10.5053 5.00533,10.5053 C4.96716667,10.5053 4.93465,10.5021067 4.90245,10.49572 C4.87025,10.48932 4.83898667,10.4798367 4.80866,10.46727 C4.77832667,10.45471 4.74951,10.43931 4.72221,10.42107 C4.69491667,10.40283 4.66966333,10.3821033 4.64645,10.35889 C4.62323,10.33567 4.6025,10.3104133 4.58426,10.28312 C4.56602667,10.25582 4.55062667,10.2270033 4.53806,10.19667 C4.52549333,10.1663433 4.51601,10.13508 4.50961,10.10288 C4.50320333,10.07068 4.5,10.0381633 4.5,10.00533 C4.5,9.96716667 4.50320333,9.93465 4.50961,9.90245 C4.51601,9.87025 4.52549333,9.83898667 4.53806,9.80866 C4.55062667,9.77832667 4.56602667,9.74951 4.58426,9.72221 C4.6025,9.69491667 4.62323,9.66966333 4.64645,9.64645 C4.66966333,9.62323 4.69491667,9.6025 4.72221,9.58426 C4.74951,9.56602 4.77832667,9.55062 4.80866,9.53806 C4.83898667,9.52549333 4.87025,9.51601 4.90245,9.50961 C4.93465,9.50320333 4.96716667,9.5 5,9.5 Z M6.50533,9.5 C6.53816333,9.5 6.57068,9.50320333 6.60288,9.50961 C6.63508,9.51601 6.66634333,9.52549333 6.69667,9.53806 C6.72700333,9.55062 6.75582,9.56602 6.78312,9.58426 C6.81041333,9.6025 6.83567,9.62323 6.85889,9.64645 C6.88210333,9.66966333 6.90283,9.69491667 6.92107,9.72221 C6.93931,9.74951 6.95471,9.77832667 6.96727,9.80866 C6.97983667,9.83898667 6.98932333,9.87025 6.99573,9.90245 C7.00213,9.93465 7.00533,9.96716667 7.00533,10 C7.00533,10.0381633 7.00213,10.07068 6.99573,10.10288 C6.98932333,10.13508 6.97983667,10.1663433 6.96727,10.19667 C6.95471,10.2270033 6.93931,10.25582 6.92107,10.28312 C6.90283,10.3104133 6.88210333,10.33567 6.85889,10.35889 C6.83567,10.3821033 6.81041333,10.40283 6.78312,10.42107 C6.75582,10.43931 6.72700333,10.45471 6.69667,10.46727 C6.66634333,10.4798367 6.63508,10.48932 6.60288,10.49572 C6.57068,10.5021067 6.53816333,10.5053 6.50533,10.5053 C6.46716667,10.5053 6.43465,10.5021067 6.40245,10.49572 C6.37025,10.48932 6.33898667,10.4798367 6.30866,10.46727 C6.27832667,10.45471 6.24951,10.43931 6.22221,10.42107 C6.19491667,10.40283 6.16966333,10.3821033 6.14645,10.35889 C6.12323,10.33567 6.1025,10.3104133 6.08426,10.28312 C6.06602667,10.25582 6.05062667,10.2270033 6.03806,10.19667 C6.02549333,10.1663433 6.01601,10.13508 6.00961,10.10288 C6.00320333,10.07068 6,10.0381633 6,10.00533 C6,9.96716667 6.00320333,9.93465 6.00961,9.90245 C6.01601,9.87025 6.02549333,9.83898667 6.03806,9.80866 C6.05062667,9.77832667 6.06602667,9.74951 6.08426,9.72221 C6.1025,9.69491667 6.12323,9.66966333 6.14645,9.64645 C6.16966333,9.62323 6.19491667,9.6025 6.22221,9.58426 C6.24951,9.56602 6.27832667,9.55062 6.30866,9.53806 C6.33898667,9.52549333 6.37025,9.51601 6.40245,9.50961 C6.43465,9.50320333 6.46716667,9.5 6.5,9.5 Z M8.00533,9.5 C8.03816333,9.5 8.07068,9.50320333 8.10288,9.50961 C8.13508,9.51601 8.16634333,9.52549333 8.19667,9.53806 C8.22700333,9.55062 8.25582,9.56602 8.28312,9.58426 C8.31042,9.6025 8.33567667,9.62323 8.35889,9.64645 C8.38210333,9.66966333 8.40283,9.69491667 8.42107,9.72221 C8.43931,9.74951 8.45471,9.77832667 8.46727,9.80866 C8.47983667,9.83898667 8.48932333,9.87025 8.49573,9.90245 C8.50213,9.93465 8.50533,9.96716667 8.50533,10 C8.50533,10.0381633 8.50213,10.07068 8.49573,10.10288 C8.48932333,10.13508 8.47983667,10.1663433 8.46727,10.19667 C8.45471,10.2270033 8.43931,10.25582 8.42107,10.28312 C8.40283,10.3104133 8.38210333,10.33567 8.35889,10.35889 C8.33567667,10.3821033 8.31042,10.40283 8.28312,10.42107 C8.25582,10.43931 8.22700333,10.45471 8.19667,10.46727 C8.16634333,10.4798367 8.13508,10.48932 8.10288,10.49572 C8.07068,10.5021067 8.03816333,10.5053 8.00533,10.5053 C7.96716667,10.5053 7.93465,10.5021067 7.90245,10.49572 C7.87025,10.48932 7.83898667,10.4798367 7.80866,10.46727 C7.77832667,10.45471 7.74951,10.43931 7.72221,10.42107 C7.69491667,10.40283 7.66966333,10.3821033 7.64645,10.35889 C7.62323,10.33567 7.6025,10.3104133 7.58426,10.28312 C7.56602,10.25582 7.55062,10.2270033 7.53806,10.19667 C7.52549333,10.1663433 7.51601,10.13508 7.50961,10.10288 C7.50320333,10.07068 7.5,10.0381633 7.5,10.00533 C7.5,9.96716667 7.50320333,9.93465 7.50961,9.90245 C7.51601,9.87025 7.52549333,9.83898667 7.53806,9.80866 C7.55062,9.77832667 7.56602,9.74951 7.58426,9.72221 C7.6025,9.69491667 7.62323,9.66966333 7.64645,9.64645 C7.66966333,9.62323 7.69491667,9.6025 7.72221,9.58426 C7.74951,9.56602 7.77832667,9.55062 7.80866,9.53806 C7.83898667,9.52549333 7.87025,9.51601 7.90245,9.50961 C7.93465,9.50320333 7.96716667,9.5 8,9.5 Z M3.50533,8 C3.53816333,8 3.57068,8.00320333 3.60288,8.00961 C3.63508,8.01601 3.66634333,8.02549333 3.69667,8.03806 C3.72700333,8.05062 3.75582,8.06602 3.78312,8.08426 C3.81041333,8.1025 3.83567,8.12323 3.85889,8.14645 C3.88210333,8.16966333 3.90283,8.19491667 3.92107,8.22221 C3.93931,8.24951 3.95471,8.27832667 3.96727,8.30866 C3.97983667,8.33898667 3.98932333,8.37025 3.99573,8.40245 C4.00213,8.43465 4.00533,8.46716667 4.00533,8.5 C4.00533,8.53816333 4.00213,8.57068 3.99573,8.60288 C3.98932333,8.63508 3.97983667,8.66634333 3.96727,8.69667 C3.95471,8.72700333 3.93931,8.75582 3.92107,8.78312 C3.90283,8.81041333 3.88210333,8.83567 3.85889,8.85889 C3.83567,8.88210333 3.81041333,8.90283 3.78312,8.92107 C3.75582,8.93931 3.72700333,8.95471 3.69667,8.96727 C3.66634333,8.97983667 3.63508,8.98932333 3.60288,8.99573 C3.57068,9.00213 3.53816333,9.00533 3.50533,9.00533 C3.46716667,9.00533 3.43465,9.00213 3.40245,8.99573 C3.37025,8.98932333 3.33898667,8.97983667 3.30866,8.96727 C3.27832667,8.95471 3.24951,8.93931 3.22221,8.92107 C3.19491667,8.90283 3.16966333,8.88210333 3.14645,8.85889 C3.12323,8.83567 3.1025,8.81041333 3.08426,8.78312 C3.06602667,8.75582 3.05062667,8.72700667 3.03806,8.69668 C3.02549333,8.66634667 3.01601,8.63508 3.00961,8.60288 C3.00320333,8.57068 3,8.53816333 3,8.50533 C3,8.46716667 3.00320333,8.43465 3.00961,8.40245 C3.01601,8.37025 3.02549333,8.33898667 3.03806,8.30866 C3.05062667,8.27832667 3.06602667,8.24951 3.08426,8.22221 C3.1025,8.19491667 3.12323,8.16966333 3.14645,8.14645 C3.16966333,8.12323 3.19491667,8.1025 3.22221,8.08426 C3.24951,8.06602 3.27832667,8.05062 3.30866,8.03806 C3.33898667,8.02549333 3.37025,8.01601 3.40245,8.00961 C3.43465,8.00320333 3.46716667,8 3.5,8 Z M5.00533,8 C5.03816333,8 5.07068,8.00320333 5.10288,8.00961 C5.13508,8.01601 5.16634333,8.02549333 5.19667,8.03806 C5.22700333,8.05062 5.25582,8.06602 5.28312,8.08426 C5.31042,8.1025 5.33567667,8.12323 5.35889,8.14645 C5.38210333,8.16966333 5.40283,8.19491667 5.42107,8.22221 C5.43931,8.24951 5.45471,8.27832667 5.46727,8.30866 C5.47983667,8.33898667 5.48932333,8.37025 5.49573,8.40245 C5.50213,8.43465 5.50533,8.46716667 5.50533,8.5 C5.50533,8.53816333 5.50213,8.57068 5.49573,8.60288 C5.48932333,8.63508 5.47983667,8.66634333 5.46727,8.69667 C5.45471,8.72700333 5.43931,8.75582 5.42107,8.78312 C5.40283,8.81041333 5.38210333,8.83567 5.35889,8.85889 C5.33567667,8.88210333 5.31042,8.90283 5.28312,8.92107 C5.25582,8.93931 5.22700667,8.95471 5.19668,8.96727 C5.16634667,8.97983667 5.13508,8.98932333 5.10288,8.99573 C5.07068,9.00213 5.03816333,9.00533 5.00533,9.00533 C4.96716667,9.00533 4.93465,9.00213 4.90245,8.99573 C4.87025,8.98932333 4.83898667,8.97983667 4.80866,8.96727 C4.77832667,8.95471 4.74951,8.93931 4.72221,8.92107 C4.69491667,8.90283 4.66966333,8.88210333 4.64645,8.85889 C4.62323,8.83567 4.6025,8.81041333 4.58426,8.78312 C4.56602667,8.75582 4.55062667,8.72700667 4.53806,8.69668 C4.52549333,8.66634667 4.51601,8.63508 4.50961,8.60288 C4.50320333,8.57068 4.5,8.53816333 4.5,8.50533 C4.5,8.46716667 4.50320333,8.43465 4.50961,8.40245 C4.51601,8.37025 4.52549333,8.33898667 4.53806,8.30866 C4.55062667,8.27832667 4.56602667,8.24951 4.58426,8.22221 C4.6025,8.19491667 4.62323,8.16966333 4.64645,8.14645 C4.66966333,8.12323 4.69491667,8.1025 4.72221,8.08426 C4.74951,8.06602 4.77832667,8.05062 4.80866,8.03806 C4.83898667,8.02549333 4.87025,8.01601 4.90245,8.00961 C4.93465,8.00320333 4.96716667,8 5,8 Z M6.50533,8 C6.53816333,8 6.57068,8.00320333 6.60288,8.00961 C6.63508,8.01601 6.66634333,8.02549333 6.69667,8.03806 C6.72700333,8.05062 6.75582,8.06602 6.78312,8.08426 C6.81041333,8.1025 6.83567,8.12323 6.85889,8.14645 C6.88210333,8.16966333 6.90283,8.19491667 6.92107,8.22221 C6.93931,8.24951 6.95471,8.27832667 6.96727,8.30866 C6.97983667,8.33898667 6.98932333,8.37025 6.99573,8.40245 C7.00213,8.43465 7.00533,8.46716667 7.00533,8.5 C7.00533,8.53816333 7.00213,8.57068 6.99573,8.60288 C6.98932333,8.63508 6.97983667,8.66634333 6.96727,8.69667 C6.95471,8.72700333 6.93931,8.75582 6.92107,8.78312 C6.90283,8.81041333 6.88210333,8.83567 6.85889,8.85889 C6.83567,8.88210333 6.81041333,8.90283 6.78312,8.92107 C6.75582,8.93931 6.72700333,8.95471 6.69667,8.96727 C6.66634333,8.97983667 6.63508,8.98932333 6.60288,8.99573 C6.57068,9.00213 6.53816333,9.00533 6.50533,9.00533 C6.46716667,9.00533 6.43465,9.00213 6.40245,8.99573 C6.37025,8.98932333 6.33898667,8.97983667 6.30866,8.96727 C6.27832667,8.95471 6.24951,8.93931 6.22221,8.92107 C6.19491667,8.90283 6.16966333,8.88210333 6.14645,8.85889 C6.12323,8.83567 6.1025,8.81041333 6.08426,8.78312 C6.06602667,8.75582 6.05062667,8.72700667 6.03806,8.69668 C6.02549333,8.66634667 6.01601,8.63508 6.00961,8.60288 C6.00320333,8.57068 6,8.53816333 6,8.50533 C6,8.46716667 6.00320333,8.43465 6.00961,8.40245 C6.01601,8.37025 6.02549333,8.33898667 6.03806,8.30866 C6.05062667,8.27832667 6.06602667,8.24951 6.08426,8.22221 C6.1025,8.19491667 6.12323,8.16966333 6.14645,8.14645 C6.16966333,8.12323 6.19491667,8.1025 6.22221,8.08426 C6.24951,8.06602 6.27832667,8.05062 6.30866,8.03806 C6.33898667,8.02549333 6.37025,8.01601 6.40245,8.00961 C6.43465,8.00320333 6.46716667,8 6.5,8 Z M8.00533,8 C8.03816333,8 8.07068,8.00320333 8.10288,8.00961 C8.13508,8.01601 8.16634333,8.02549333 8.19667,8.03806 C8.22700333,8.05062 8.25582,8.06602 8.28312,8.08426 C8.31042,8.1025 8.33567667,8.12323 8.35889,8.14645 C8.38210333,8.16966333 8.40283,8.19491667 8.42107,8.22221 C8.43931,8.24951 8.45471,8.27832667 8.46727,8.30866 C8.47983667,8.33898667 8.48932333,8.37025 8.49573,8.40245 C8.50213,8.43465 8.50533,8.46716667 8.50533,8.5 C8.50533,8.53816333 8.50213,8.57068 8.49573,8.60288 C8.48932333,8.63508 8.47983667,8.66634333 8.46727,8.69667 C8.45471,8.72700333 8.43931,8.75582 8.42107,8.78312 C8.40283,8.81041333 8.38210333,8.83567 8.35889,8.85889 C8.33567667,8.88210333 8.31042,8.90283 8.28312,8.92107 C8.25582,8.93931 8.22700333,8.95471 8.19667,8.96727 C8.16634333,8.97983667 8.13508,8.98932333 8.10288,8.99573 C8.07068,9.00213 8.03816333,9.00533 8.00533,9.00533 C7.96716667,9.00533 7.93465,9.00213 7.90245,8.99573 C7.87025,8.98932333 7.83898667,8.97983667 7.80866,8.96727 C7.77832667,8.95471 7.74951,8.93931 7.72221,8.92107 C7.69491667,8.90283 7.66966333,8.88210333 7.64645,8.85889 C7.62323,8.83567 7.6025,8.81041333 7.58426,8.78312 C7.56602,8.75582 7.55062,8.72700667 7.53806,8.69668 C7.52549333,8.66634667 7.51601,8.63508 7.50961,8.60288 C7.50320333,8.57068 7.5,8.53816333 7.5,8.50533 C7.5,8.46716667 7.50320333,8.43465 7.50961,8.40245 C7.51601,8.37025 7.52549333,8.33898667 7.53806,8.30866 C7.55062,8.27832667 7.56602,8.24951 7.58426,8.22221 C7.6025,8.19491667 7.62323,8.16966333 7.64645,8.14645 C7.66966333,8.12323 7.69491667,8.1025 7.72221,8.08426 C7.74951,8.06602 7.77832667,8.05062 7.80866,8.03806 C7.83898667,8.02549333 7.87025,8.01601 7.90245,8.00961 C7.93465,8.00320333 7.96716667,8 8,8 Z M9.50533,8 C9.53816333,8 9.57068,8.00320333 9.60288,8.00961 C9.63508,8.01601 9.66634333,8.02549333 9.69667,8.03806 C9.72700333,8.05062 9.75582,8.06602 9.78312,8.08426 C9.81041333,8.1025 9.83567,8.12323 9.85889,8.14645 C9.88210333,8.16966333 9.90283,8.19491667 9.92107,8.22221 C9.93931,8.24951 9.95471,8.27832667 9.96727,8.30866 C9.97983667,8.33898667 9.98932,8.37025 9.99572,8.40245 C10.0021267,8.43465 10.00533,8.46716667 10.00533,8.5 C10.00533,8.53816333 10.0021267,8.57068 9.99572,8.60288 C9.98932,8.63508 9.97983667,8.66634333 9.96727,8.69667 C9.95471,8.72700333 9.93931,8.75582 9.92107,8.78312 C9.90283,8.81041333 9.88210333,8.83567 9.85889,8.85889 C9.83567,8.88210333 9.81041333,8.90283 9.78312,8.92107 C9.75582,8.93931 9.72700333,8.95471 9.69667,8.96727 C9.66634333,8.97983667 9.63508,8.98932333 9.60288,8.99573 C9.57068,9.00213 9.53816333,9.00533 9.50533,9.00533 C9.46716667,9.00533 9.43465,9.00213 9.40245,8.99573 C9.37025,8.98932333 9.33898667,8.97983667 9.30866,8.96727 C9.27832667,8.95471 9.24951,8.93931 9.22221,8.92107 C9.19491667,8.90283 9.16966333,8.88210333 9.14645,8.85889 C9.12323,8.83567 9.1025,8.81041333 9.08426,8.78312 C9.06602,8.75582 9.05062,8.72700667 9.03806,8.69668 C9.02549333,8.66634667 9.01601,8.63508 9.00961,8.60288 C9.00320333,8.57068 9,8.53816333 9,8.50533 C9,8.46716667 9.00320333,8.43465 9.00961,8.40245 C9.01601,8.37025 9.02549333,8.33898667 9.03806,8.30866 C9.05062,8.27832667 9.06602,8.24951 9.08426,8.22221 C9.1025,8.19491667 9.12323,8.16966333 9.14645,8.14645 C9.16966333,8.12323 9.19491667,8.1025 9.22221,8.08426 C9.24951,8.06602 9.27832667,8.05062 9.30866,8.03806 C9.33898667,8.02549333 9.37025,8.01601 9.40245,8.00961 C9.43465,8.00320333 9.46716667,8 9.5,8 Z M6.50533,6.5 C6.53816333,6.5 6.57068,6.50320333 6.60288,6.50961 C6.63508,6.51601 6.66634333,6.52549333 6.69667,6.53806 C6.72700333,6.55062667 6.75582,6.56602667 6.78312,6.58426 C6.81041333,6.6025 6.83567,6.62323 6.85889,6.64645 C6.88210333,6.66966333 6.90283,6.69491667 6.92107,6.72221 C6.93931,6.74951 6.95471,6.77832667 6.96727,6.80866 C6.97983667,6.83898667 6.98932333,6.87025 6.99573,6.90245 C7.00213,6.93465 7.00533,6.96716667 7.00533,7 C7.00533,7.03816333 7.00213,7.07068 6.99573,7.10288 C6.98932333,7.13508 6.97983667,7.16634333 6.96727,7.19667 C6.95471,7.22700333 6.93931,7.25582 6.92107,7.28312 C6.90283,7.31041333 6.88210333,7.33567 6.85889,7.35889 C6.83567,7.38210333 6.81041333,7.40283 6.78312,7.42107 C6.75582,7.43931 6.72700333,7.45471 6.69667,7.46727 C6.66634333,7.47983667 6.63508,7.48932333 6.60288,7.49573 C6.57068,7.50213 6.53816333,7.50533 6.50533,7.50533 C6.46716667,7.50533 6.43465,7.50213 6.40245,7.49573 C6.37025,7.48932333 6.33898667,7.47983667 6.30866,7.46727 C6.27832667,7.45471 6.24951,7.43931 6.22221,7.42107 C6.19491667,7.40283 6.16966333,7.38210333 6.14645,7.35889 C6.12323,7.33567 6.1025,7.31041333 6.08426,7.28312 C6.06602667,7.25582 6.05062667,7.22700333 6.03806,7.19667 C6.02549333,7.16634333 6.01601,7.13508 6.00961,7.10288 C6.00320333,7.07068 6,7.03816333 6,7.00533 C6,6.96716667 6.00320333,6.93465 6.00961,6.90245 C6.01601,6.87025 6.02549333,6.83898667 6.03806,6.80866 C6.05062667,6.77832667 6.06602667,6.74951 6.08426,6.72221 C6.1025,6.69491667 6.12323,6.66966333 6.14645,6.64645 C6.16966333,6.62323 6.19491667,6.6025 6.22221,6.58426 C6.24951,6.56602667 6.27832667,6.55062667 6.30866,6.53806 C6.33898667,6.52549333 6.37025,6.51601 6.40245,6.50961 C6.43465,6.50320333 6.46716667,6.5 6.5,6.5 Z M8.00533,6.5 C8.03816333,6.5 8.07068,6.50320333 8.10288,6.50961 C8.13508,6.51601 8.16634333,6.52549333 8.19667,6.53806 C8.22700333,6.55062667 8.25582,6.56602667 8.28312,6.58426 C8.31042,6.6025 8.33567667,6.62323 8.35889,6.64645 C8.38210333,6.66966333 8.40283,6.69491667 8.42107,6.72221 C8.43931,6.74951 8.45471,6.77832667 8.46727,6.80866 C8.47983667,6.83898667 8.48932333,6.87025 8.49573,6.90245 C8.50213,6.93465 8.50533,6.96716667 8.50533,7 C8.50533,7.03816333 8.50213,7.07068 8.49573,7.10288 C8.48932333,7.13508 8.47983667,7.16634333 8.46727,7.19667 C8.45471,7.22700333 8.43931,7.25582 8.42107,7.28312 C8.40283,7.31041333 8.38210333,7.33567 8.35889,7.35889 C8.33567667,7.38210333 8.31042,7.40283 8.28312,7.42107 C8.25582,7.43931 8.22700333,7.45471 8.19667,7.46727 C8.16634333,7.47983667 8.13508,7.48932333 8.10288,7.49573 C8.07068,7.50213 8.03816333,7.50533 8.00533,7.50533 C7.96716667,7.50533 7.93465,7.50213 7.90245,7.49573 C7.87025,7.48932333 7.83898667,7.47983667 7.80866,7.46727 C7.77832667,7.45471 7.74951,7.43931 7.72221,7.42107 C7.69491667,7.40283 7.66966333,7.38210333 7.64645,7.35889 C7.62323,7.33567 7.6025,7.31041333 7.58426,7.28312 C7.56602,7.25582 7.55062,7.22700333 7.53806,7.19667 C7.52549333,7.16634333 7.51601,7.13508 7.50961,7.10288 C7.50320333,7.07068 7.5,7.03816333 7.5,7.00533 C7.5,6.96716667 7.50320333,6.93465 7.50961,6.90245 C7.51601,6.87025 7.52549333,6.83898667 7.53806,6.80866 C7.55062,6.77832667 7.56602,6.74951 7.58426,6.72221 C7.6025,6.69491667 7.62323,6.66966333 7.64645,6.64645 C7.66966333,6.62323 7.69491667,6.6025 7.72221,6.58426 C7.74951,6.56602667 7.77832667,6.55062667 7.80866,6.53806 C7.83898667,6.52549333 7.87025,6.51601 7.90245,6.50961 C7.93465,6.50320333 7.96716667,6.5 8,6.5 Z M9.50533,6.5 C9.53816333,6.5 9.57068,6.50320333 9.60288,6.50961 C9.63508,6.51601 9.66634333,6.52549333 9.69667,6.53806 C9.72700333,6.55062667 9.75582,6.56602667 9.78312,6.58426 C9.81041333,6.6025 9.83567,6.62323 9.85889,6.64645 C9.88210333,6.66966333 9.90283,6.69491667 9.92107,6.72221 C9.93931,6.74951 9.95471,6.77832667 9.96727,6.80866 C9.97983667,6.83898667 9.98932,6.87025 9.99572,6.90245 C10.0021267,6.93465 10.00533,6.96716667 10.00533,7 C10.00533,7.03816333 10.0021267,7.07068 9.99572,7.10288 C9.98932,7.13508 9.97983667,7.16634333 9.96727,7.19667 C9.95471,7.22700333 9.93931,7.25582 9.92107,7.28312 C9.90283,7.31041333 9.88210333,7.33567 9.85889,7.35889 C9.83567,7.38210333 9.81041333,7.40283 9.78312,7.42107 C9.75582,7.43931 9.72700333,7.45471 9.69667,7.46727 C9.66634333,7.47983667 9.63508,7.48932333 9.60288,7.49573 C9.57068,7.50213 9.53816333,7.50533 9.50533,7.50533 C9.46716667,7.50533 9.43465,7.50213 9.40245,7.49573 C9.37025,7.48932333 9.33898667,7.47983667 9.30866,7.46727 C9.27832667,7.45471 9.24951,7.43931 9.22221,7.42107 C9.19491667,7.40283 9.16966333,7.38210333 9.14645,7.35889 C9.12323,7.33567 9.1025,7.31041333 9.08426,7.28312 C9.06602,7.25582 9.05062,7.22700333 9.03806,7.19667 C9.02549333,7.16634333 9.01601,7.13508 9.00961,7.10288 C9.00320333,7.07068 9,7.03816333 9,7.00533 C9,6.96716667 9.00320333,6.93465 9.00961,6.90245 C9.01601,6.87025 9.02549333,6.83898667 9.03806,6.80866 C9.05062,6.77832667 9.06602,6.74951 9.08426,6.72221 C9.1025,6.69491667 9.12323,6.66966333 9.14645,6.64645 C9.16966333,6.62323 9.19491667,6.6025 9.22221,6.58426 C9.24951,6.56602667 9.27832667,6.55062667 9.30866,6.53806 C9.33898667,6.52549333 9.37025,6.51601 9.40245,6.50961 C9.43465,6.50320333 9.46716667,6.5 9.5,6.5 Z M11,2.5 L2,2.5 C1.72386,2.5 1.48815767,2.59763 1.292893,2.79289 C1.097631,2.98815667 1,3.22386 1,3.5 L1,4.26227 C1.29712133,4.08742333 1.63045467,4 2,4 L11,4 C11.3695333,4 11.7028667,4.08742333 12,4.26227 L12,3.5 C12,3.22386 11.9023667,2.98815667 11.7071,2.79289 C11.5118333,2.59763 11.2761333,2.5 11,2.5 Z" id="形状结合"></path>
        </g>
    </g>
</svg>