<?xml version="1.0" encoding="iso-8859-1"?>
<!-- Generator: Adobe Illustrator 26.3.1, SVG Export Plug-In . SVG Version: 6.00 Build 0)  -->
<svg version="1.1" id="&#x56FE;&#x5C42;_1" xmlns="http://www.w3.org/2000/svg" xmlns:xlink="http://www.w3.org/1999/xlink" x="0px"
	 y="0px" viewBox="0 0 875.75 205.039" style="enable-background:new 0 0 875.75 205.039;" xml:space="preserve">
<g>
	<path style="fill:#4B73E7;" d="M437.552,5.071c-5.474-1.357-11.093-2.547-16.701-2.877c-40.452-2.38-80.945-0.826-121.421-1.002
		c-2.91-0.013-3.604,1.294-3.864,3.87c-0.585,5.791-1.26,11.589-2.27,17.318C282.9,81.34,272.462,140.292,261.909,199.224
		c-0.674,3.766,0.41,4.544,3.93,4.489c11.327-0.176,22.666-0.286,33.986,0.053c4.028,0.121,5.032-1.597,5.593-4.946
		c2.336-13.941,4.8-27.861,7.253-41.783c6.75-38.318,13.553-76.628,20.225-114.959c0.629-3.616,1.71-5.171,5.9-5.104
		c18.657,0.298,37.321,0.075,55.982,0.173c4.15,0.022,8.346,0.283,12.434,0.958c6.926,1.144,11.978,4.836,13.939,11.907
		c5.179,18.673-8.45,38.496-27.719,40.041c-17.129,1.374-34.307,0.378-51.461,0.527c-3.029,0.026-4.392,0.824-4.955,3.93
		c-1.362,7.523-3.065,14.985-4.692,22.458c-2.138,9.815-2.163,9.722,7.887,9.832c11.968,0.131,24.008-0.864,35.814,2.109
		c13.575,3.419,20.728,11.307,22.886,25.079c0.624,3.979,0.748,7.959,0.622,11.952c-0.362,11.496-1.749,22.9-3.494,34.251
		c-0.494,3.212,0.393,4.041,3.507,4.012c13.495-0.125,26.993-0.126,40.488,0.006c2.743,0.027,3.696-0.875,4.046-3.547
		c1.728-13.202,3.778-26.395,4.256-39.696c0.72-20.007-4.987-36.602-25.994-43.962c-0.138-0.048-0.229-0.231-0.73-0.761
		c2.061-0.812,3.907-1.544,5.756-2.267c17.021-6.653,28.988-18.473,36.109-35.257c3.533-8.326,5.765-17.01,6.851-25.961
		C473.185,29.202,460.564,10.777,437.552,5.071z"/>
	<path style="fill:#4B73E7;" d="M873.978,158.41c-15.684-42.566-31.643-85.03-47.467-127.544c-1.715-4.608-4.413-8.557-7.735-12.113
		C808.113,7.338,794.535,2.206,779.359,0.498c-31.825-3.581-56.404,12.535-67.289,35.984
		c-19.104,41.156-39.214,81.846-59.049,122.661c-2.8,5.763-3.793,11.667-3.372,17.886c0.883,13.052,12.725,26.447,24.127,26.924
		c10.147,0.424,20.32,0.22,30.477,0.46c2.283,0.054,3.123-0.744,3.78-2.851c3.926-12.587,11.121-23.344,19.267-33.52
		c5.847-7.305,13.242-11.84,22.739-12.984c11.332-1.365,22.54-1.132,33.832,0.615c9.575,1.481,17.093,5.751,22.973,13.448
		c6.41,8.391,11.324,17.581,15.905,27.031c1.359,2.804,0.719,7.129,3.623,8.299c2.862,1.153,6.554,0.252,9.882,0.252
		c0-0.045,0-0.09,0-0.135c2.331,0,4.668,0.101,6.993-0.016C864.551,203.478,881.376,178.489,873.978,158.41z M823.711,104.158
		c-0.785,4.506-2.197,8.678-5.657,11.934c-0.685,0.644-1.221,1.597-1.493,2.507c-5.268,17.605-18.366,24.271-35.431,25.292
		c-3.98,0.238-7.986,0.035-11.98,0.035c-8.992,0.204-17.957-0.003-26.666-2.765c-10.56-3.349-17.77-10.162-21.611-20.479
		c-0.828-2.223-1.858-4.144-3.388-5.975c-3.566-4.267-4.577-9.518-4.951-14.888c-0.723-10.389,0.772-20.574,3.052-30.669
		c0.272-1.204,0.168-2.977,1.981-2.945c1.599,0.028,1.914,1.652,2.38,2.864c0.953,2.475,1.548,5.137,2.819,7.428
		c1.392,2.508,3.302,3.641,5.764,0.632c6.774-8.278,15.672-13.298,25.929-15.851c2.017-0.502,2.917-1.869,4.327-2.879
		c4.754-3.405,14.779-3.122,19.354,0.811c1.388,1.194,2.746,1.605,4.32,2.033c9.861,2.685,18.426,7.506,25.232,15.267
		c2.719,3.1,4.885,2.86,6.612-0.854c1.113-2.395,1.701-5.029,2.629-7.517c0.397-1.065,0.904-2.275,2.354-2.216
		c1.339,0.054,1.381,1.281,1.584,2.192C823.518,79.994,825.849,91.899,823.711,104.158z"/>
	<path style="fill:#4B73E7;" d="M671.516,41.329c-3.698-20.051-17.026-34.441-35.489-38.042c-7.527-1.468-15.183-2.149-22.85-2.154
		c-35.482-0.023-70.965,0.1-106.447,0.027c-3.488-0.007-4.785,0.915-5.421,4.544c-11.334,64.691-22.822,129.356-34.383,194.008
		c-0.584,3.267,0.243,4.034,3.399,3.993c11.493-0.147,22.994-0.258,34.48,0.054c3.911,0.106,5.141-1.374,5.67-4.85
		c3.154-20.702,6.729-41.359,10.629-61.908c6.013-31.681,11.104-63.516,16.952-95.22c0.686-3.719,1.894-4.81,5.646-4.768
		c18.323,0.201,36.649,0.04,54.973,0.134c3.814,0.019,7.659,0.353,11.431,0.926c8.237,1.252,13.422,6.583,14.545,14.814
		c1.18,8.646-0.708,16.869-3.865,24.851c-4.462,11.285-12.603,17.573-24.897,18.424c-16.811,1.163-33.636,0.289-50.452,0.529
		c-2.553,0.037-4.321,0.176-4.895,3.399c-1.72,9.654-3.729,19.258-5.785,28.848c-0.661,3.082,0.06,4.074,3.356,4.01
		c10.325-0.198,20.656-0.073,30.984-0.073c0-0.021,0-0.042,0-0.062c8.996,0,17.997,0.206,26.985-0.049
		c12.72-0.362,25.173-1.94,36.576-8.413C660.381,108.612,677.293,72.655,671.516,41.329z"/>
	<path style="fill:#4B73E7;" d="M135.599,107.425c-3.998-5.29-3.519-7.966,1.638-12.215c27.491-22.649,55.016-45.255,82.451-67.972
		c8.818-7.302,17.987-14.208,27.224-23.182c-21.658,0-41.94,0.018-62.221-0.029c-1.911-0.004-3.063,1.175-4.306,2.207
		c-7.937,6.593-15.926,13.127-23.723,19.882c-26.421,22.889-52.781,45.849-79.137,68.812c-7.812,6.806-8.219,12.597-1.481,20.431
		c24.636,28.645,49.32,57.249,73.897,85.945c1.826,2.132,3.665,2.836,6.398,2.792c16.981-0.275,33.965-0.377,50.949-0.525
		c3.027-0.027,6.055-0.004,9.639-0.004c-7.132-8.141-13.864-15.717-20.479-23.394C175.808,156.223,154.681,132.675,135.599,107.425z
		"/>
	<path style="fill:#4B73E7;" d="M91.93,192.842c-0.5-0.001-1,0.021-1.499,0.007c-12.066-0.352-17.844-7.175-16.222-19.151
		c1.428-10.545,2.755-21.104,4.334-31.626c0.626-4.175-0.027-7.638-2.675-11.112c-4.128-5.416-7.805-11.183-11.541-16.888
		c-4.386-6.698-3.725-12.799,1.977-18.401c5.581-5.483,10.895-11.332,17.002-16.168c9.902-7.84,15.419-17.158,16.129-30.195
		c0.739-13.566,3.519-27.021,5.395-40.525c0.304-2.189,0.685-4.958-2.28-5.131c-8.129-0.475-16.294-0.654-24.418,0.15
		c-1.146,0.113-2.289,1.295-3.238,2.189c-9.862,9.296-21.682,14.021-35.08,14.906c-2.273,0.15-3.301,0.714-3.352,3.076
		c-0.039,1.815-0.448,3.628-0.775,5.427c-0.458,2.521-0.093,3.658,3.094,3.91c10.446,0.823,14.016,5.655,12.169,15.966
		c-4.192,23.394-8.782,46.72-12.654,70.166c-2.952,17.874-4.744,35.938-7.626,53.825c-2.308,14.327-8.683,19.647-23.097,19.433
		c-5.387-0.08-6.926,1.442-7.486,6.653c-0.465,4.33,0.91,4.558,4.342,4.527c14.82-0.134,29.643-0.057,44.465-0.057
		c0-0.016,0-0.032,0-0.049c14.821,0,29.643,0.036,44.464-0.052c1.569-0.009,3.543,1.008,4.548-1.666
		C100.485,195.193,99.074,192.855,91.93,192.842z"/>
	<path style="fill:#4B73E7;" d="M256.975,90.611c-23.8,0.076-47.6,0.077-71.4-0.004c-2.753-0.009-3.652,0.991-4.069,3.661
		c-1.513,9.682-3.145,19.354-5.121,28.949c-0.688,3.339,0.166,3.873,3.237,3.835c11.815-0.147,23.633-0.06,35.449-0.059
		c11.151,0,22.305-0.15,33.451,0.079c4.038,0.083,6.168-0.526,6.736-5.274c1.104-9.223,2.911-18.374,4.754-27.489
		C260.632,91.251,259.856,90.602,256.975,90.611z"/>
	<path style="fill:#4B73E7;" d="M782.829,87.927c-4.033,1.594-8.038,3.017-12.482,3.134c-6.418,0.17-12.445-0.692-18.367-3.549
		c-8.127-3.921-14.793-2.75-19.143,2.499c-5.261,6.347-5.768,21.074-0.96,27.912c4.341,6.176,10.801,7.065,21.639,2.982
		c0.155-0.059,0.317-0.102,0.471-0.163c8.361-3.295,16.784-3.629,25.361-0.775c3.774,1.256,7.603,2.489,11.505,3.183
		c6.775,1.205,12.052-1.912,14.77-8.274c1.388-3.25,2.086-6.651,1.926-10.204C807.48,88.058,798.294,81.818,782.829,87.927z
		 M753.751,104.653c-0.176,2.248,0.412,4.728-1.888,6.326c-2.078,1.445-4.063,1.198-5.793-0.571
		c-2.114-2.161-1.93-9.637,0.306-11.589c1.86-1.624,3.936-1.597,5.862-0.128C754.264,100.235,753.67,102.555,753.751,104.653z
		 M789.767,105.172c-0.246,2.078,0.493,4.395-1.385,6.065c-2.025,1.8-4.171,1.895-6.187,0.026c-2.149-1.993-2.102-9.534,0.08-11.597
		c1.984-1.876,4.139-1.862,6.185-0.059C790.189,101.127,789.686,103.232,789.767,105.172z"/>
</g>
</svg>
