<?xml version="1.0" encoding="UTF-8"?>
<svg width="24px" height="24px" viewBox="0 0 24 24" version="1.1" xmlns="http://www.w3.org/2000/svg" xmlns:xlink="http://www.w3.org/1999/xlink">
    <title>label</title>
    <g id="页面-1" stroke="none" stroke-width="1" fill="none" fill-rule="evenodd">
        <g id="label" transform="translate(3.5, 0.9999)" fill="#000000">
            <path d="M16,0 C16.0656667,0 16.1307,0.006405 16.1951,0.019215 C16.2595,0.032025 16.3220333,0.0509936667 16.3827,0.076121 C16.4433667,0.101248333 16.501,0.132051333 16.5556,0.16853 C16.6102,0.205009333 16.6607,0.246463667 16.7071,0.292893 C16.7535,0.339322333 16.7949667,0.389834667 16.8315,0.44443 C16.8679667,0.499024667 16.8987667,0.556653667 16.9239,0.617317 C16.9490333,0.677979667 16.968,0.740510667 16.9808,0.80491 C16.9936,0.869309067 17,0.934339067 17,1 L17,21 C17,21.0656667 16.9936,21.1307 16.9808,21.1951 C16.968,21.2595 16.9490333,21.3220333 16.9239,21.3827 C16.8987667,21.4433667 16.8679667,21.501 16.8315,21.5556 C16.7949667,21.6102 16.7535,21.6607 16.7071,21.7071 C16.6607,21.7535 16.6102,21.7949667 16.5556,21.8315 C16.501,21.8679667 16.4433667,21.8987667 16.3827,21.9239 C16.3220333,21.9490333 16.2595,21.968 16.1951,21.9808 C16.1307,21.9936 16.0656667,22.0001777 16,22.0001777 C15.8968667,22.0001777 15.7961333,21.9844333 15.6978,21.9533 C15.5995333,21.9221 15.5082333,21.8768 15.4239,21.8174 L8.5,16.9377 L1.576071,21.8174 C1.467677,21.8938 1.34879167,21.9465333 1.219415,21.9756 C1.09003793,22.0047333 0.960017933,22.0079667 0.829355,21.9853 C0.698691667,21.9627 0.577331333,21.9159333 0.465274,21.845 C0.353216667,21.7741333 0.258992,21.6845 0.1826,21.5761 C0.12319,21.4917667 0.077904,21.4004667 0.046742,21.3022 C0.0155806667,21.2038667 0,21.1031333 0,21 L0,1 C0,0.934339067 0.006405,0.869309067 0.019215,0.80491 C0.032025,0.740510667 0.0509936667,0.677979667 0.076121,0.617317 C0.101248333,0.556653667 0.132051333,0.499024667 0.16853,0.44443 C0.205009333,0.389834667 0.246463667,0.339322333 0.292893,0.292893 C0.339322333,0.246463667 0.389834667,0.205009333 0.44443,0.16853 C0.499024667,0.132051333 0.556653667,0.101248333 0.617317,0.076121 C0.677979667,0.0509936667 0.740510667,0.032025 0.80491,0.019215 C0.869309067,0.006405 0.934339067,0 1,0 L16,0 Z M15,8 L2,8 L2,19.0718 L7.92393,14.8969 C7.96583,14.8673667 8.00974,14.8412 8.05566,14.8184 C8.10158667,14.7956667 8.14898,14.7765333 8.19784,14.761 C8.24670667,14.7455333 8.29646667,14.7339 8.34712,14.7261 C8.39778,14.7182333 8.44874,14.7143 8.5,14.7143 C8.55126,14.7143 8.60222,14.7182333 8.65288,14.7261 C8.70353333,14.7339 8.75329333,14.7455333 8.80216,14.761 C8.85102667,14.7765333 8.89842,14.7956667 8.94434,14.8184 C8.99026,14.8412 9.03417,14.8673667 9.07607,14.8969 L15,19.0718 L15,8 Z M15,2 L2,2 L2,6 L15,6 L15,2 Z" id="形状结合"></path>
        </g>
    </g>
</svg>