<?xml version="1.0" encoding="UTF-8"?>
<svg width="70.4518064px" height="17.9999994px" viewBox="0 0 70.4518064 17.9999994" version="1.1" xmlns="http://www.w3.org/2000/svg" xmlns:xlink="http://www.w3.org/1999/xlink">
    <title>logo</title>
    <g id="页面-1" stroke="none" stroke-width="1" fill="none" fill-rule="evenodd">
        <g id="logo" fill="#2882FF">
            <path d="M10.9807,8.20077 L19.3205,0.486486 L19.7375,0 L14.5946,0 L13.4826,0.972973 L5.97684,8.27027 C5.88417333,8.40926333 5.81467333,8.50192667 5.76834,8.54826 C5.58301333,8.96524667 5.55984667,9.31273667 5.69884,9.59073 L12.0927,17.9305 L14.2471,17.861 L16.749,17.861 L17.305,17.9305 L16.9575,17.5135 C13.3899667,13.0193 11.2818667,10.2162167 10.6332,9.10425 C10.4478667,8.77992333 10.5637,8.47876333 10.9807,8.20077 Z" id="路径"></path>
            <path d="M7.71429,17.027 L7.1583,17.027 C6.11583,17.027 5.83784,16.193 5.83784,15.9846 C5.83784,15.6139333 5.88417333,15.1274333 5.97684,14.5251 L6.25483,11.9537 C5.51351,10.7490333 5.09652,10.05404 5.00386,9.86872 C4.86486,9.59073 4.79536,9.45174 4.86486,9.10425 C4.86486,8.87258333 4.95752333,8.64092 5.14285,8.40926 L7.71428,5.69884 C8.1776,2.22393733 8.40926,0.440154 8.40926,0.34749 C8.40926,0.254826 8.38609333,0.185328 8.33976,0.138996 C8.29342,0.0926641333 8.24708667,0.0694982 8.20076,0.0694982 L6.32432,0.0694982 C6.23165333,0.0694982 6.16215333,0.115830133 6.11582,0.208494 C5.28185,1.11197 4.58687,1.32046 4.30887,1.38996 C3.70656333,1.57528667 3.26641333,1.64478667 2.98842,1.59846 L2.84942,2.71042 L3.12741,2.71042 C3.6834,2.77992 3.6834,2.77992 3.96139,3.05791 C4.14671667,3.24324333 4.19304667,3.56757 4.10038,4.03089 L3.12741,10.0077 C2.80309,12.6949667 2.61776333,14.2702667 2.57143,14.7336 C2.50192,15.4286 2.36293,15.8456 2.29344,15.9846 C2.08494,16.4015 1.87645,16.6795 1.52896,16.749 C1.34363333,16.8416667 1.135139,16.888 0.903477,16.888 C0.671817,16.9343333 0.416989333,16.9343333 0.138994,16.888 L0,17.861 L7.85328,17.861 C7.89962,17.444 7.92279,17.166 7.92279,17.027 C7.92279,16.9806667 7.85329,16.9806667 7.71429,17.027 Z" id="路径"></path>
            <polygon id="路径" fill-rule="nonzero" points="14.5945927 8.06177521 14.0386057 11.2586852 20.3629357 11.2586852 20.9189157 8.06177521"></polygon>
            <path d="M37.7374109,5.14285444 C37.8764109,4.30888444 37.8069109,3.54440444 37.5984109,2.84942444 C37.3899109,2.15444444 36.9730109,1.59845444 36.4170109,1.18146744 C35.6525109,0.55598444 34.0540109,0.20849444 31.8301109,0.20849444 L25.5752909,0.20849444 L23.7683309,0.20849444 L23.5598409,1.87644444 L20.9884109,17.9999944 L24.4633109,17.9999944 L25.5057809,11.4671944 L26.1312609,7.99227444 L26.8957409,3.26641444 L31.7606109,3.26641444 C32.3861109,3.26641444 32.8031109,3.33590444 33.0811109,3.40540444 C33.8455109,3.68339444 34.1235109,4.37837444 33.9150109,5.49034444 C33.7760109,6.46332444 33.3590109,7.15830444 32.8031109,7.57529444 C32.3861109,7.85328444 31.8301109,7.99227444 30.9961109,7.99227444 L27.2432209,7.99227444 L26.6177509,11.1891944 L28.4247009,11.1891944 C29.6061609,11.1891944 30.5096409,11.3281944 31.1351109,11.7451944 C31.6216109,12.0926944 31.8996109,12.5096944 32.0386109,13.0655944 C32.1776109,13.6215944 32.2471109,14.3860944 32.1776109,15.4285944 C32.1081109,16.7489944 31.8996109,17.6524944 31.8996109,17.9999944 L35.7220109,17.9999944 C35.7915109,17.5134944 35.9305109,16.5404944 36.0000109,15.2200944 C36.0695109,14.4555944 36.0695109,13.8995944 36.0695109,13.4825944 C36.0695109,13.0655944 36.0000109,12.6486944 35.8610109,12.2316944 C35.6525109,11.6756944 35.4440109,11.2586944 35.1660109,10.9806944 C34.8880109,10.7026944 34.4710109,10.4246944 33.8455109,10.2161944 C34.6795109,9.93822444 35.3745109,9.52123444 36.0000109,8.96525444 C36.8340109,8.13127444 37.4594109,6.81081444 37.7374109,5.14285444 Z" id="路径"></path>
            <path d="M53.7914574,2.91891644 C53.3745574,1.66795644 52.6795574,0.903475437 51.6370574,0.486486437 C51.0115574,0.277992437 49.9691574,0.138996437 48.5096574,0.138996437 L42.3938174,0.138996437 L40.3088674,0.138996437 L40.0308874,1.87644644 L37.4594574,17.9999964 L40.9343574,17.9999964 L41.8378374,12.3011964 L41.7683374,12.3011964 L42.4633174,8.54826644 L42.3938174,8.54826644 L43.2277874,3.26640644 L48.0231574,3.26640644 C48.6486574,3.26640644 49.0656574,3.33590644 49.3436574,3.47490644 C50.0385574,3.82239644 50.3165574,4.58687644 50.1080574,5.76833644 C49.8995574,6.88030644 49.5520574,7.64478644 48.9961574,8.13127644 C48.5791574,8.40926644 47.9536574,8.54826644 47.1196674,8.54826644 L43.4362774,8.54826644 L42.8802874,11.7451964 L47.4671574,11.7451964 C48.4401574,11.7451964 49.2046574,11.6756964 49.7605574,11.4671964 C50.3165574,11.2586964 50.8725574,10.9806964 51.4980574,10.4941964 C52.1235574,10.0077264 52.6795574,9.31274644 53.0965574,8.47876644 C53.5134574,7.64478644 53.7914574,6.81081644 53.9999574,5.90733644 C54.1389574,4.86486644 54.0694574,3.82239644 53.7914574,2.91891644 Z" id="路径"></path>
            <path d="M63.6602229,7.57528858 C63.5212329,7.57528858 63.3127329,7.64478689 62.5482529,7.99227679 C62.2007629,8.13127279 61.2277929,8.13127279 60.8108029,7.99227679 C60.6023029,7.92277879 60.0463129,7.50579089 59.4208389,7.64478689 C58.8185208,7.73745082 58.5173618,8.29343512 58.5173618,9.31273979 C58.5173618,9.52122979 58.4478596,10.8416998 59.5598329,10.9806898 C59.6988229,10.9806898 60.1158229,10.9111898 60.6023029,10.7026998 C61.0887829,10.4942098 61.9227629,10.4247098 62.4787529,10.6331998 C62.9652329,10.8416998 63.4517129,10.9806898 63.7297129,10.9806898 C64.0077029,10.9806898 64.7721829,10.9111898 64.9111829,9.52122979 C64.9111929,9.24323979 64.9806829,7.50579029 63.6602229,7.57528858 Z M60.6023029,9.52122979 C60.6023029,9.72972979 60.4633129,9.93821979 60.2548129,9.93821979 C60.0463129,9.93821979 59.9073229,9.72972979 59.9073229,9.52122979 L59.9073229,9.03474979 C59.9073229,8.82624979 60.0463129,8.61775979 60.2548129,8.61775979 C60.4633129,8.61775979 60.6023029,8.82624979 60.6023029,9.03474979 L60.6023029,9.52122979 Z M63.5212329,9.59072979 C63.5212329,9.79922979 63.3822329,10.0077198 63.1737429,10.0077198 C62.9652429,10.0077198 62.8262529,9.79922979 62.8262529,9.59072979 L62.8262529,9.10424979 C62.8262529,8.89574979 62.9652429,8.68725979 63.1737429,8.68725979 C63.3822329,8.68725979 63.5212329,8.89574979 63.5212329,9.10424979 L63.5212329,9.59072979 Z" id="形状"></path>
            <path d="M70.3320261,14.2470994 C67.7374261,6.60231278 66.4169594,2.71042278 66.3706261,2.57142945 C66.2316261,2.29343945 65.1892261,0.0694994479 61.9227761,0.0694994479 C59.7451694,0.0694994479 58.2625461,0.996139448 57.4749061,2.84941945 L52.3320391,14.4555994 C51.9150538,16.4015328 52.4942028,17.5829994 54.0694861,17.9999994 C54.8571328,17.9999994 55.7837761,17.9999994 56.8494161,17.9999994 C56.9189161,17.7219994 56.9884061,17.5134994 57.0579061,17.2354994 C57.3358961,16.6794994 58.1003761,14.9420994 59.0038561,14.2470994 C59.2123561,13.8300994 60.3938161,13.4825994 61.7837761,13.5520994 C62.6872261,13.5520994 63.4517261,13.7605994 64.0077261,13.9690994 C64.0077261,13.8995994 63.9382261,13.8300994 63.9382261,13.7605994 C63.9845594,13.8069328 64.0077261,13.8764328 64.0077261,13.9690994 C64.2857261,14.1080994 64.4942261,14.2470994 64.4942261,14.3860994 C65.3281261,15.1505994 66.0231261,16.8879994 66.3011261,17.4439994 C66.3706261,17.6524994 66.3706261,17.7914994 66.4401261,17.9999994 C67.4826261,17.9999994 68.2471261,17.9999994 68.3166261,17.9304994 C70.0772261,17.2818328 70.7490261,16.0540328 70.3320261,14.2470994 Z M65.6756261,10.3551994 C65.5366261,11.1196994 65.1197261,11.7451994 64.6332261,12.0926994 C63.9382261,12.6485994 62.9652261,12.7180994 61.8532661,12.7875994 C60.7412961,12.7875994 59.6988261,12.7180994 58.9343561,12.1621994 C58.3783661,11.8146994 58.0308761,11.1196994 57.8223761,10.3551994 C57.4748961,10.0771994 56.8494161,9.17374945 57.5443961,6.04632945 L57.5443961,5.97682945 C57.5907294,5.93050278 57.6138961,5.90733945 57.6138961,5.90733945 C57.6833961,5.90733945 57.7528861,5.90733945 57.8223961,6.18532945 C57.8918961,6.46331945 58.0308861,7.01929945 58.1698861,7.01929945 C58.2162194,7.01929945 58.2625494,7.04246611 58.3088761,7.08879945 C58.8648661,6.25482945 59.7683361,5.62933945 60.8108061,5.42084945 C60.8108061,5.35134945 60.8108061,5.35134945 60.8108061,5.28184945 C61.3204661,4.91119611 61.8764394,4.91119611 62.4787261,5.28184945 C62.4787261,5.32818278 62.4787261,5.37451611 62.4787261,5.42084945 C63.5907261,5.62933945 64.4942261,6.25482945 65.0502261,7.22779945 C65.0502261,7.08879945 65.1197261,7.01929945 65.1892261,7.01929945 C65.4671261,6.94980945 65.4671261,5.97682945 65.7451261,5.97682945 C65.7914594,5.88416945 65.8377928,5.93050278 65.8841261,6.11582945 C66.6486261,9.24323945 66.0231261,10.1466994 65.6756261,10.3551994 Z" id="形状"></path>
        </g>
    </g>
</svg>