<svg xmlns="http://www.w3.org/2000/svg" xmlns:xlink="http://www.w3.org/1999/xlink" fill="none" version="1.1" width="24" height="24" viewBox="0 0 24 24"><defs><clipPath id="master_svg0_3253_05662"><rect x="0" y="0" width="24" height="24" rx="0"/></clipPath><clipPath id="master_svg1_3253_05663"><rect x="0" y="0" width="24" height="24" rx="0"/></clipPath></defs><g clip-path="url(#master_svg0_3253_05662)"><g clip-path="url(#master_svg1_3253_05663)"></g><g><path d="M3.6667070234375,14.5C3.2064700234375,14.5,2.8333740234375,14.873096,2.8333740234375,15.333333L2.8333740234375,18.66667Q2.833374073108,19.7022,3.5656070234375,20.43443Q4.2978440234375,21.16667,5.3333740234375,21.16667L18.6666740234375,21.16667Q19.7022740234375,21.16667,20.4344740234375,20.43443Q21.1666740234375,19.7022,21.1666740234375,18.66667L21.1666740234375,15.333333C21.1666740234375,14.873096,20.7935740234375,14.5,20.3333740234375,14.5C19.8731740234375,14.5,19.5000740234375,14.873096,19.5000740234375,15.333333L19.5000740234375,18.66667Q19.5000740234375,19.01184,19.2559740234375,19.25592Q19.0118740234375,19.5,18.6666740234375,19.5L5.3333740234375,19.5Q4.9881940234375,19.5,4.7441140234375005,19.25592Q4.5000440234375,19.01185,4.5000440234375,18.66667L4.5000440234375,15.333333C4.5000440234375,14.873096,4.1269440234375,14.5,3.6667070234375,14.5Z" fill-rule="evenodd" fill="#38363C" fill-opacity="1"/></g><g transform="matrix(0,-1,1,0,-5.8333740234375,28.1666259765625)"><path d="M11.9999589765625,17L24.4999259765625,17C24.960225976562498,17,25.3333259765625,17.373096,25.3333259765625,17.833333C25.3333259765625,18.29357,24.960225976562498,18.66667,24.4999259765625,18.66667L11.9999589765625,18.66667C11.5397219765625,18.66667,11.1666259765625,18.29357,11.1666259765625,17.833333C11.1666259765625,17.373096,11.5397219765625,17,11.9999589765625,17Z" fill-rule="evenodd" fill="#38363C" fill-opacity="1"/></g><g><path d="M7.244078,7.244075876464843L7.244078,7.244075876464843L11.41074,3.0774138764648438C11.567029999999999,2.921133176464844,11.77899,2.8333358267943436,12,2.8333358764648438C12.22101,2.8333358764648438,12.432970000000001,2.921133176464844,12.58926,3.0774138764648438L16.75592,7.244075876464843C16.9122,7.400355876464844,17,7.612325876464844,17,7.833335876464844C17,8.293575876464843,16.6269,8.666665876464844,16.16667,8.666665876464844C15.94565,8.666665876464844,15.73369,8.578875876464844,15.57741,8.422595876464843L12,4.845175876464843L8.4229,8.422275876464845L8.4229,8.422275876464845C8.26631,8.578875876464844,8.05435,8.666665876464844,7.833333,8.666665876464844C7.373096,8.666665876464844,7,8.293575876464843,7,7.833335876464844C7,7.612325876464844,7.0877973,7.400355876464844,7.244078,7.244075876464843Z" fill-rule="evenodd" fill="#38363C" fill-opacity="1"/></g></g></svg>