<?xml version="1.0" encoding="UTF-8"?>
<svg width="16px" height="16px" viewBox="0 0 16 16" version="1.1" xmlns="http://www.w3.org/2000/svg" xmlns:xlink="http://www.w3.org/1999/xlink">
    <title>菜单_今日流程</title>
    <g id="页面-1" stroke="none" stroke-width="1" fill="none" fill-rule="evenodd">
        <g id="菜单_今日流程" fill="#38363C">
            <path d="M13.5,11 C14.6045695,11 15.5,11.8954305 15.5,13 C15.5,14.1045695 14.6045695,15 13.5,15 C12.3954305,15 11.5,14.1045695 11.5,13 C11.5,11.8954305 12.3954305,11 13.5,11 Z M7.5,12 C7.54912667,12 7.59813667,12.0024076 7.64703,12.0072229 C7.69591667,12.0120382 7.74445333,12.0192379 7.79264,12.0288221 C7.84082,12.0384062 7.88841667,12.0503287 7.93543,12.0645895 C7.98243667,12.0788502 8.02863333,12.0953807 8.07402,12.114181 C8.11941333,12.132981 8.16377333,12.15396 8.2071,12.177118 C8.25042,12.200276 8.29250667,12.225502 8.33336,12.252796 C8.37420667,12.2800893 8.41361667,12.3093187 8.45159,12.340484 C8.48956333,12.37165 8.52592,12.404602 8.56066,12.43934 C8.5954,12.474078 8.62835333,12.5104347 8.65952,12.54841 C8.69068,12.5863853 8.71990667,12.625797 8.7472,12.666645 C8.77449333,12.7074923 8.79972,12.749579 8.82288,12.792905 C8.84604,12.836231 8.86702,12.8805877 8.88582,12.925975 C8.90462,12.9713623 8.92115,13.0175607 8.93541,13.06457 C8.94967,13.1115833 8.96159333,13.15918 8.97118,13.20736 C8.98076,13.2555467 8.98796,13.3040833 8.99278,13.35297 C8.99759333,13.4018633 9,13.4508733 9,13.5 C9,13.5491267 8.99759333,13.5981367 8.99278,13.64703 C8.98796,13.6959167 8.98076,13.7444533 8.97118,13.79264 C8.96159333,13.84082 8.94967,13.8884167 8.93541,13.93543 C8.92115,13.9824367 8.90462,14.0286333 8.88582,14.07402 C8.86702,14.1194133 8.84604,14.1637733 8.82288,14.2071 C8.79972,14.25042 8.77449333,14.2925067 8.7472,14.33336 C8.71990667,14.3742067 8.69068,14.4136167 8.65952,14.45159 C8.62835333,14.4895633 8.5954,14.52592 8.56066,14.56066 C8.52592,14.5954 8.48956333,14.6283533 8.45159,14.65952 C8.41361667,14.69068 8.37420333,14.7199067 8.33335,14.7472 C8.29250333,14.7744933 8.25042,14.79972 8.2071,14.82288 C8.16377333,14.84604 8.11941333,14.86702 8.07402,14.88582 C8.02863333,14.90462 7.98243667,14.92115 7.93543,14.93541 C7.88841667,14.94967 7.84082,14.9615933 7.79264,14.97118 C7.74445333,14.98076 7.69591667,14.98796 7.64703,14.99278 C7.59813667,14.9975933 7.54912667,15 7.5,15 C7.45087333,15 7.40186333,14.9975933 7.35297,14.99278 C7.30408333,14.98796 7.25554667,14.98076 7.20736,14.97118 C7.15918,14.9615933 7.11158333,14.94967 7.06457,14.93541 C7.01756067,14.92115 6.97136233,14.90462 6.925975,14.88582 C6.88058767,14.86702 6.836231,14.84604 6.792905,14.82288 C6.749579,14.79972 6.70749233,14.7744933 6.666645,14.7472 C6.625797,14.7199067 6.58638533,14.69068 6.54841,14.65952 C6.51043467,14.6283533 6.474078,14.5954 6.43934,14.56066 C6.404602,14.52592 6.37165,14.4895633 6.340484,14.45159 C6.30931867,14.4136167 6.28008933,14.3742033 6.252796,14.33335 C6.225502,14.2925033 6.200276,14.25042 6.177118,14.2071 C6.15396,14.1637733 6.132981,14.1194133 6.114181,14.07402 C6.09538073,14.0286333 6.07885023,13.9824367 6.0645895,13.93543 C6.0503287,13.8884167 6.03840623,13.84082 6.0288221,13.79264 C6.0192379,13.7444533 6.01203817,13.6959167 6.00722291,13.64703 C6.00240764,13.5981367 6,13.5491267 6,13.5 C6,13.4508733 6.00240764,13.4018633 6.00722291,13.35297 C6.01203817,13.3040833 6.0192379,13.2555467 6.0288221,13.20736 C6.03840623,13.15918 6.0503287,13.1115833 6.0645895,13.06457 C6.07885023,13.0175607 6.09538073,12.9713623 6.114181,12.925975 C6.132981,12.8805877 6.15396,12.836231 6.177118,12.792905 C6.200276,12.749579 6.225502,12.7074923 6.252796,12.666645 C6.28008933,12.625797 6.30931867,12.5863853 6.340484,12.54841 C6.37165,12.5104347 6.404602,12.474078 6.43934,12.43934 C6.474078,12.404602 6.51043467,12.37165 6.54841,12.340484 C6.58638533,12.3093187 6.625797,12.2800893 6.666645,12.252796 C6.70749233,12.225502 6.749579,12.200276 6.792905,12.177118 C6.836231,12.15396 6.88058767,12.132981 6.925975,12.114181 C6.97136233,12.0953807 7.01756067,12.0788502 7.06457,12.0645895 C7.11158333,12.0503287 7.15918,12.0384062 7.20736,12.0288221 C7.25554667,12.0192379 7.30408333,12.0120382 7.35297,12.0072229 C7.40186333,12.0024076 7.45087333,12 7.5,12 Z M1.5,12 C1.54912667,12 1.59813667,12.0024076 1.64703,12.0072229 C1.69591667,12.0120382 1.74445333,12.0192379 1.79264,12.0288221 C1.84082,12.0384062 1.88841667,12.0503287 1.93543,12.0645895 C1.98243667,12.0788502 2.02863333,12.0953807 2.07402,12.114181 C2.11941333,12.132981 2.16377333,12.15396 2.2071,12.177118 C2.25042,12.200276 2.29250667,12.225502 2.33336,12.252796 C2.37420667,12.2800893 2.41361667,12.3093187 2.45159,12.340484 C2.48956333,12.37165 2.52592,12.404602 2.56066,12.43934 C2.5954,12.474078 2.62835333,12.5104347 2.65952,12.54841 C2.69068,12.5863853 2.71990667,12.625797 2.7472,12.666645 C2.77449333,12.7074923 2.79972,12.749579 2.82288,12.792905 C2.84604,12.836231 2.86702,12.8805877 2.88582,12.925975 C2.90462,12.9713623 2.92115,13.0175607 2.93541,13.06457 C2.94967,13.1115833 2.96159333,13.15918 2.97118,13.20736 C2.98076,13.2555467 2.98796,13.3040833 2.99278,13.35297 C2.99759333,13.4018633 3,13.4508733 3,13.5 C3,13.5491267 2.99759333,13.5981367 2.99278,13.64703 C2.98796,13.6959167 2.98076,13.7444533 2.97118,13.79264 C2.96159333,13.84082 2.94967,13.8884167 2.93541,13.93543 C2.92115,13.9824367 2.90462,14.0286333 2.88582,14.07402 C2.86702,14.1194133 2.84604,14.1637733 2.82288,14.2071 C2.79972,14.25042 2.77449333,14.2925067 2.7472,14.33336 C2.71990667,14.3742067 2.69068,14.4136167 2.65952,14.45159 C2.62835333,14.4895633 2.5954,14.52592 2.56066,14.56066 C2.52592,14.5954 2.48956333,14.6283533 2.45159,14.65952 C2.41361667,14.69068 2.37420333,14.7199067 2.33335,14.7472 C2.29250333,14.7744933 2.25042,14.79972 2.2071,14.82288 C2.16377333,14.84604 2.11941333,14.86702 2.07402,14.88582 C2.02863333,14.90462 1.98243667,14.92115 1.93543,14.93541 C1.88841667,14.94967 1.84082,14.9615933 1.79264,14.97118 C1.74445333,14.98076 1.69591667,14.98796 1.64703,14.99278 C1.59813667,14.9975933 1.54912667,15 1.5,15 C1.45087333,15 1.40186333,14.9975933 1.35297,14.99278 C1.30408333,14.98796 1.25554667,14.98076 1.20736,14.97118 C1.15918,14.9615933 1.11158333,14.94967 1.06457,14.93541 C1.01756067,14.92115 0.971362333,14.90462 0.925975,14.88582 C0.880587667,14.86702 0.836231,14.84604 0.792905,14.82288 C0.749579,14.79972 0.707492333,14.7744933 0.666645,14.7472 C0.625797,14.7199067 0.586385333,14.69068 0.54841,14.65952 C0.510434667,14.6283533 0.474078,14.5954 0.43934,14.56066 C0.404602,14.52592 0.37165,14.4895633 0.340484,14.45159 C0.309318667,14.4136167 0.280089333,14.3742033 0.252796,14.33335 C0.225502,14.2925033 0.200276,14.25042 0.177118,14.2071 C0.15396,14.1637733 0.132981,14.1194133 0.114181,14.07402 C0.0953807333,14.0286333 0.0788502333,13.9824367 0.0645895,13.93543 C0.0503287,13.8884167 0.0384062333,13.84082 0.0288221,13.79264 C0.0192379,13.7444533 0.01203817,13.6959167 0.00722291,13.64703 C0.00240763667,13.5981367 0,13.5491267 0,13.5 C0,13.4508733 0.00240763667,13.4018633 0.00722291,13.35297 C0.01203817,13.3040833 0.0192379,13.2555467 0.0288221,13.20736 C0.0384062333,13.15918 0.0503287,13.1115833 0.0645895,13.06457 C0.0788502333,13.0175607 0.0953807333,12.9713623 0.114181,12.925975 C0.132981,12.8805877 0.15396,12.836231 0.177118,12.792905 C0.200276,12.749579 0.225502,12.7074923 0.252796,12.666645 C0.280089333,12.625797 0.309318667,12.5863853 0.340484,12.54841 C0.37165,12.5104347 0.404602,12.474078 0.43934,12.43934 C0.474078,12.404602 0.510434667,12.37165 0.54841,12.340484 C0.586385333,12.3093187 0.625797,12.2800893 0.666645,12.252796 C0.707492333,12.225502 0.749579,12.200276 0.792905,12.177118 C0.836231,12.15396 0.880587667,12.132981 0.925975,12.114181 C0.971362333,12.0953807 1.01756067,12.0788502 1.06457,12.0645895 C1.11158333,12.0503287 1.15918,12.0384062 1.20736,12.0288221 C1.25554667,12.0192379 1.30408333,12.0120382 1.35297,12.0072229 C1.40186333,12.0024076 1.45087333,12 1.5,12 Z M13.5,11.75 C13.4668479,11.75 13.4349577,11.7563433 13.4043292,11.76903 C13.3737004,11.7817167 13.346665,11.799781 13.323223,11.823223 C13.299781,11.846665 13.2817167,11.8737004 13.26903,11.9043292 C13.2563433,11.9349577 13.25,11.9668479 13.25,12 L13.25,13 C13.25,13.0331533 13.2563433,13.0650433 13.26903,13.09567 C13.2817167,13.1262967 13.299781,13.1533333 13.323223,13.17678 C13.346665,13.20022 13.3737004,13.2182833 13.4043292,13.23097 C13.4349577,13.2436567 13.4668479,13.25 13.5,13.25 L14.5,13.25 C14.5331533,13.25 14.5650433,13.2436567 14.59567,13.23097 C14.6262967,13.2182833 14.6533333,13.20022 14.67678,13.17678 C14.70022,13.1533333 14.7182833,13.1262967 14.73097,13.09567 C14.7436567,13.0650433 14.75,13.0331533 14.75,13 C14.75,12.966848 14.7436567,12.9349577 14.73097,12.904329 C14.7182833,12.8737003 14.70022,12.846665 14.67678,12.823223 C14.6533333,12.799781 14.6262967,12.7817167 14.59567,12.76903 C14.5650433,12.7563433 14.5331533,12.75 14.5,12.75 L13.75,12.75 L13.75,12 C13.75,11.9668479 13.7436567,11.9349577 13.73097,11.9043292 C13.7182833,11.8737004 13.700219,11.846665 13.676777,11.823223 C13.653335,11.799781 13.6262996,11.7817167 13.5956708,11.76903 C13.5650423,11.7563433 13.5331521,11.75 13.5,11.75 Z M7.5,6 C7.776142,6 8,6.223858 8,6.5 L8,8 L13.5,8 C13.7761,8 14,8.223858 14,8.5 L14,9.5 C14,9.77614 13.7761,10 13.5,10 C13.2239,10 13,9.77614 13,9.5 L13,9 L8,9 L8,10.5 C8,10.7454578 7.82312454,10.9496079 7.58987553,10.9919443 L7.5,11 C7.223858,11 7,10.77614 7,10.5 L7,9 L2,9 L2,10.5 C2,10.77614 1.776142,11 1.5,11 C1.223858,11 1,10.77614 1,10.5 L1,8.5 C1,8.223858 1.223858,8 1.5,8 L7,8 L7,6.5 C7,6.25454044 7.17687546,6.0503917 7.41012447,6.00805568 L7.5,6 Z M5,0.5 L5,4.5 C5,4.77614 5.223858,5 5.5,5 L9.5,5 C9.77614,5 10,4.77614 10,4.5 L10,0.5 C10,0.223858 9.77614,0 9.5,0 L5.5,0 C5.223858,0 5,0.223858 5,0.5 Z M6,4 L6,1 L9,1 L9,4 L6,4 Z" id="形状结合"></path>
        </g>
    </g>
</svg>